<svg height="512" viewBox="0 0 192 192" width="512" xmlns="http://www.w3.org/2000/svg" xmlns:xlink="http://www.w3.org/1999/xlink"><linearGradient id="New_Gradient_Swatch_1" gradientTransform="matrix(.581 .814 -.814 .581 135.07 -70.467)" gradientUnits="userSpaceOnUse" x1="87.07" x2="184.93" y1="144.93" y2="47.07"><stop offset="0" stop-color="#ff85a6"/><stop offset="1" stop-color="#ffdc68"/></linearGradient><path d="m151.877 141.6-24-135a8 8 0 0 0 -7.877-6.6h-48a8 8 0 0 0 -7.877 6.6l-24 135a8.007 8.007 0 0 0 -.123 1.4v41a8 8 0 0 0 8 8h96a8 8 0 0 0 8-8v-41a8.007 8.007 0 0 0 -.123-1.4z" fill="#fff6d9"/><path d="m56 184v-41a8.007 8.007 0 0 1 .123-1.4l24-135a8 8 0 0 1 7.877-6.6h-16a8 8 0 0 0 -7.877 6.6l-24 135a8.007 8.007 0 0 0 -.123 1.4v41a8 8 0 0 0 8 8h16a8 8 0 0 1 -8-8z" fill="#ffedb4"/><path d="m112 72v-16h-8v-24h-16v24h-8v16h8v24h-8v16h8v32h16v-32h8v-16h-8v-24z" fill="#ffe58e"/><path d="m67.181 88h137.637v15.999h-137.637z" fill="url(#New_Gradient_Swatch_1)" transform="matrix(.581 -.814 .814 .581 -21.167 150.869)"/><path d="m40 144v40a8 8 0 0 0 8 8h96a8 8 0 0 0 8-8v-40z" fill="#ffe58e"/><path d="m56 184v-40h-16v40a8 8 0 0 0 8 8h16a8 8 0 0 1 -8-8z" fill="#ffdc68"/></svg>